<svg xmlns="http://www.w3.org/2000/svg" width="18.81" height="21.757" viewBox="0 0 18.81 21.757">
  <g id="Path_1" data-name="Path 1" transform="translate(-2566.905 -131.681)" fill="#bb003a" stroke-linecap="round" stroke-linejoin="round">
    <path d="M 2576.26806640625 153.1010894775391 L 2575.93994140625 152.8137359619141 L 2567.5751953125 145.4844970703125 L 2567.40478515625 145.3351135253906 L 2567.40478515625 145.1084289550781 L 2567.40478515625 137.2215423583984 L 2567.40478515625 136.9972991943359 L 2567.572265625 136.8481597900391 L 2572.6708984375 132.3072204589844 L 2572.99169921875 132.0214080810547 L 2573.322509765625 132.2957305908203 L 2576.248046875 134.7218170166016 L 2578.79443359375 132.3170776367188 L 2579.11328125 132.0159301757813 L 2579.453369140625 132.2928771972656 L 2585.030029296875 136.8338165283203 L 2585.21435546875 136.98388671875 L 2585.21435546875 137.2215423583984 L 2585.21435546875 145.1084289550781 L 2585.21435546875 145.3365325927734 L 2585.0419921875 145.4860382080078 L 2576.59716796875 152.8152770996094 L 2576.26806640625 153.1010894775391 Z" stroke="none"/>
    <path d="M 2573.00341796875 132.6806030273438 L 2567.90478515625 137.2215423583984 L 2567.90478515625 145.1084289550781 L 2576.26953125 152.4376678466797 L 2584.71435546875 145.1084289550781 L 2584.71435546875 137.2215423583984 L 2579.1376953125 132.6806030273438 L 2576.26953125 135.3892364501953 L 2573.00341796875 132.6806030273438 M 2579.137939453125 131.6806030273438 C 2579.361083984375 131.6805877685547 2579.584716796875 131.7549591064453 2579.76904296875 131.9051666259766 L 2585.345703125 136.4461059570313 C 2585.5791015625 136.6360015869141 2585.71435546875 136.9207916259766 2585.71435546875 137.2215423583984 L 2585.71435546875 145.1084289550781 C 2585.71435546875 145.3982086181641 2585.588623046875 145.6737365722656 2585.369873046875 145.8636627197266 L 2576.925048828125 153.1928863525391 C 2576.547607421875 153.5205078125 2575.986083984375 153.5190277099609 2575.610595703125 153.1897888183594 L 2567.245849609375 145.8605651855469 C 2567.029052734375 145.6706848144531 2566.90478515625 145.3965606689453 2566.90478515625 145.1084289550781 L 2566.90478515625 137.2215423583984 C 2566.90478515625 136.9362487792969 2567.026611328125 136.6645202636719 2567.23974609375 136.4747772216797 L 2572.33837890625 131.933837890625 C 2572.70751953125 131.6050720214844 2573.261474609375 131.5954132080078 2573.641845703125 131.9108581542969 L 2576.2265625 134.0544128417969 L 2578.451171875 131.9535675048828 C 2578.64306640625 131.7722625732422 2578.89013671875 131.6806182861328 2579.137939453125 131.6806030273438 Z" stroke="none" fill="#bb003a"/>
  </g>
</svg>
